# xmcd
#
# Track frame offsets:
#	150
#	10861
#	22073
#	38851
#	49189
#	66961
#	77816
#	88922
#	105039
#	117957
#
# Disc length: 1821 seconds
#
# Revision: 0
# Processed by: cddbd v1.5.2PL0 Copyright (c) Steve Scherf et al.
# Submitted via: audiograbber 1.82.01
#
DISCID=79071b0a
DTITLE=Hobo Jim - Lost and Dyin' Breed
DYEAR=1985
DGENRE=Country
TTITLE0=The Great Alaska RR
TTITLE1=Grandpa Hunted Coon
TTITLE2=A Little Nighttime Yodel
TTITLE3=Maple Syrup on Flapjacks
TTITLE4=Gypsy Tavern
TTITLE5=Lost and Dyin' Breed
TTITLE6=Miner's Dream
TTITLE7=Lonesome Pines
TTITLE8=The F/V Mary Ann
TTITLE9=The Shaman's Song
EXTD=
EXTT0=
EXTT1=
EXTT2=
EXTT3=
EXTT4=
EXTT5=
EXTT6=
EXTT7=
EXTT8=
EXTT9=
PLAYORDER=
